<svg width="46" height="50" viewBox="0 0 46 50" fill="none" xmlns="http://www.w3.org/2000/svg">
<path d="M16.6476 17.0072C16.6476 13.2235 19.4593 10.1562 22.9277 10.1562C26.3961 10.1562 29.2077 13.2235 29.2077 17.0072V23.8582C29.2077 27.6418 26.3961 30.7091 22.9277 30.7091C19.4593 30.7091 16.6476 27.6419 16.6476 23.8582V17.0072Z" fill="#525252"/>
<path d="M33.3944 21.5745V23.8582C33.3944 30.1643 28.7083 35.2764 22.9277 35.2764C17.1471 35.2764 12.4609 30.1643 12.4609 23.8582V21.5745M22.9277 36.4183V39.8438M22.9277 39.8438H27.1144M22.9277 39.8438H18.741M22.9277 30.7091C19.4593 30.7091 16.6476 27.6419 16.6476 23.8582V17.0072C16.6476 13.2235 19.4593 10.1562 22.9277 10.1562C26.3961 10.1562 29.2077 13.2235 29.2077 17.0072V23.8582C29.2077 27.6418 26.3961 30.7091 22.9277 30.7091Z" stroke="#646464" stroke-width="1.39394" stroke-linecap="round" stroke-linejoin="round"/>
</svg>
